<?xml version="1.0" encoding="UTF-8" standalone="no"?>
<!-- Uploaded to: SVG Repo, www.svgrepo.com, Generator: SVG Repo Mixer Tools -->

<svg
   fill="#000000"
   height="800px"
   width="800px"
   version="1.1"
   id="Capa_1"
   viewBox="0 0 215.129 215.129"
   xml:space="preserve"
   sodipodi:docname="new-talos-icon.svg"
   inkscape:version="1.4.3 (0d15f75042, 2025-12-25)"
   xmlns:inkscape="http://www.inkscape.org/namespaces/inkscape"
   xmlns:sodipodi="http://sodipodi.sourceforge.net/DTD/sodipodi-0.dtd"
   xmlns:xlink="http://www.w3.org/1999/xlink"
   xmlns="http://www.w3.org/2000/svg"
   xmlns:svg="http://www.w3.org/2000/svg"><defs
   id="defs1"><linearGradient
     id="linearGradient25"
     inkscape:collect="always"><stop
       style="stop-color:#7a5a1a;stop-opacity:1;"
       offset="0"
       id="stop25" /><stop
       style="stop-color:#e8b84b;stop-opacity:1;"
       offset="1"
       id="stop26" /></linearGradient><linearGradient
     inkscape:collect="always"
     xlink:href="#linearGradient25"
     id="linearGradient13"
     x1="168.66197"
     y1="199.01118"
     x2="45.523808"
     y2="5.2240438"
     gradientUnits="userSpaceOnUse"
     gradientTransform="matrix(1.2434369,0,0,1.2434369,-20.746894,-21.615014)" /><linearGradient
     inkscape:collect="always"
     xlink:href="#linearGradient25"
     id="linearGradient14"
     x1="168.66197"
     y1="199.01118"
     x2="45.523808"
     y2="5.2240438"
     gradientUnits="userSpaceOnUse"
     gradientTransform="matrix(1.2434369,0,0,1.2434369,-20.746894,-21.615014)" /><linearGradient
     inkscape:collect="always"
     xlink:href="#linearGradient25"
     id="linearGradient26"
     x1="168.66197"
     y1="199.01118"
     x2="45.523808"
     y2="5.2240438"
     gradientUnits="userSpaceOnUse"
     gradientTransform="matrix(1.2434369,0,0,1.2434369,-20.746894,-21.615014)" /></defs><sodipodi:namedview
   id="namedview1"
   pagecolor="#505050"
   bordercolor="#ffffff"
   borderopacity="1"
   inkscape:showpageshadow="0"
   inkscape:pageopacity="0"
   inkscape:pagecheckerboard="1"
   inkscape:deskcolor="#505050"
   showgrid="false"
   inkscape:zoom="0.76437501"
   inkscape:cx="440.88307"
   inkscape:cy="400.32706"
   inkscape:window-width="1457"
   inkscape:window-height="1139"
   inkscape:window-x="0"
   inkscape:window-y="0"
   inkscape:window-maximized="0"
   inkscape:current-layer="Capa_1" />
<path
   style="display:inline;fill:url(#linearGradient13);fill-opacity:1;stroke-width:1.24343"
   d="M 105.14884,22.94842 C 99.752401,22.95752 94.391701,23.482401 89.211856,24.720865 64.902672,30.538907 49.520343,50.046212 45.513989,65.709784 42.77158,76.43371 44.761525,87.227625 46.985236,94.30564 83.66951,79.69042 113.92734,66.053043 148.20766,43.432663 137.07617,28.493318 123.41495,22.917684 105.14884,22.94842 Z"
   id="path1-2"
   sodipodi:nodetypes="sccccs" />
<path
   id="path1-3"
   style="display:inline;fill:url(#linearGradient14);fill-opacity:1;stroke-width:1.24343"
   d="m 180.6555,214.5786 c -0.24868,0 -0.49986,-0.0373 -0.74606,-0.11564 -0.83434,-0.26236 -20.59381,-6.55167 -35.83958,-16.80878 -14.96104,-10.06313 -50.533271,-34.41461 -50.891382,-34.65956 -0.836829,-0.57322 -1.242189,-1.59658 -1.023345,-2.58759 0.0398,-0.18155 4.006358,-18.32453 2.725613,-26.004 -0.867918,-5.20876 -5.784467,-11.1499 -8.695354,-14.12669 l -39.091175,21.13097 c -1.058165,0.57198 -2.373722,0.30339 -3.126,-0.6354 -0.751037,-0.94003 -0.721194,-2.2817 0.06963,-3.18816 l 12.26651,-14.05707 -8.355896,-25.327563 c -0.0013,-0.0064 -5.394015,2.043993 -0.005,-0.01621 49.29937,-18.846527 70.846209,-29.584262 113.871469,-59.617828 0.58193,-0.865432 1.64631,-1.273279 2.65846,-1.030809 1.01341,0.248687 1.76569,1.102929 1.88133,2.141198 0.0895,0.818182 9.08703,82.040732 10.44238,92.346332 1.37275,10.43493 2.52293,18.61798 2.52293,18.62296 0.13802,0.98854 -0.32702,1.96463 -1.1825,2.47817 -0.85425,0.5123 -1.9348,0.46877 -2.74303,-0.12185 l -6.8389,-4.97376 c -0.54463,-0.3954 -0.90398,-0.99474 -0.99972,-1.65998 l -4.62932,-32.51339 -27.76346,-9.85176 -2.19342,9.69757 28.45605,10.25463 c 0.88035,0.31708 1.50829,1.10168 1.62517,2.02929 0.041,0.32702 4.15557,32.89015 7.40964,51.86375 3.16828,18.48866 12.20185,32.76084 12.29138,32.90259 0.56451,0.88159 0.51726,2.02183 -0.11937,2.85244 -0.48122,0.62545 -1.21608,0.9761 -1.97707,0.9761 z"
   sodipodi:nodetypes="scccccccccccscccccccccccccccccs" /><path
   style="display:inline;fill:url(#linearGradient26);fill-opacity:1;stroke-width:0.334374"
   d="m 146.79562,35.253205 c 0,0 7.54599,-15.966847 9.5145,-20.560049 1.96852,-4.593201 0.98426,-5.2493742 -2.51533,-6.7804427 C 150.29521,6.381647 124.67515,-1.2698144 99.769991,1.241633 73.741841,3.8663227 50.578444,17.220955 38.964734,41.377474 30.762589,58.437938 30.32514,76.592024 32.293656,87.74695 c 0.324766,1.840332 1.883958,3.652106 5.030652,3.062125 1.749791,-0.328082 4.483839,-1.312338 4.483839,-1.312338 0,0 -2.883781,-10.232268 -0.218724,-22.856652 4.457819,-21.116713 22.245443,-35.972488 35.323912,-41.885627 20.560046,-9.295769 43.854145,-4.81193 49.978415,-2.405966 10.88902,4.277829 19.90387,12.904713 19.90387,12.904713 z"
   id="path2"
   sodipodi:nodetypes="csssssscsssc" /></svg>
